<svg id="eF1nxM9hrsp1" xmlns="http://www.w3.org/2000/svg" xmlns:xlink="http://www.w3.org/1999/xlink" viewBox="0 0 300 300" shape-rendering="geometricPrecision" text-rendering="geometricPrecision"><ellipse rx="6.002088" ry="6.784968" transform="matrix(.913044 0 0 0.769231 105.114823 68.893529)" stroke-width="0"/><ellipse rx="6.002088" ry="6.784968" transform="matrix(.913044 0 0 0.769231 99.634668 112.212942)" stroke-width="0"/><ellipse rx="6.002088" ry="6.784968" transform="matrix(.913044 0 0 0.769231 193.841342 138.830898)" stroke-width="0"/><ellipse rx="6.002088" ry="6.784968" transform="matrix(.913044 0 0 0.769231 144.519829 117.43215)" stroke-width="0"/><ellipse rx="6.002088" ry="6.784968" transform="matrix(.913044 0 0 0.769231 77.974947 138.830898)" stroke-width="0"/><ellipse rx="6.002088" ry="6.784968" transform="matrix(.913044 0 0 0.769231 182.881001 90.292274)" stroke-width="0"/><line x1="22.442581" y1="2.609604" x2="-22.442581" y2="-2.609604" transform="matrix(.411286-.637491 1.277007 0.823878 90.537753 124.369901)" stroke="#000"/><line x1="22.442581" y1="2.609604" x2="-22.442581" y2="-2.609604" transform="translate(122.077249 114.822547)" stroke="#000"/><line x1="22.442581" y1="2.609604" x2="-22.442581" y2="-2.609604" transform="matrix(.012243 0.999925-.999925 0.012243 101.723022 91.487073)" stroke="#000"/><line x1="22.442581" y1="2.609604" x2="-22.442581" y2="-2.609604" transform="matrix(.731049-.682325 0.682325 0.731049 164.554484 102.29395)" stroke="#000"/><line x1="22.442581" y1="2.609604" x2="-22.442581" y2="-2.609604" transform="matrix(1.088183 0.379574-.353968 1.014773 169.865186 127.664114)" stroke="#000"/></svg>
