<svg xmlns="http://www.w3.org/2000/svg" xmlns:xlink="http://www.w3.org/1999/xlink" viewBox="0,0,256,256" width="100px" height="100px" fill-rule="nonzero"><g fill-opacity="0" fill="#dddddd" fill-rule="nonzero" stroke="none" stroke-width="1" stroke-linecap="butt" stroke-linejoin="miter" stroke-miterlimit="10" stroke-dasharray="" stroke-dashoffset="0" font-family="none" font-weight="none" font-size="none" text-anchor="none" style="mix-blend-mode: normal"><path d="M0,256v-256h256v256z" id="bgRectangle"></path></g><g fill="#e4e5e6" fill-rule="nonzero" stroke="none" stroke-width="1" stroke-linecap="butt" stroke-linejoin="miter" stroke-miterlimit="10" stroke-dasharray="" stroke-dashoffset="0" font-family="none" font-weight="none" font-size="none" text-anchor="none" style="mix-blend-mode: normal"><g transform="scale(5.12,5.12)"><path d="M29.03125,0c-0.07422,-0.00391 -0.14453,0.01563 -0.21875,0.03125l-28,5.28125c-0.47266,0.08984 -0.8125,0.51953 -0.8125,1v37.28125c0,0.48047 0.33984,0.91016 0.8125,1l28,5.375c0.0625,0.01172 0.125,0.03125 0.1875,0.03125c0.23047,0 0.44531,-0.07031 0.625,-0.21875c0.23047,-0.19141 0.375,-0.48047 0.375,-0.78125v-48c0,-0.29687 -0.14453,-0.58984 -0.375,-0.78125c-0.17187,-0.14062 -0.375,-0.21094 -0.59375,-0.21875zM32,8.09375v11.8125c2.30469,-0.37109 4.12109,-2.02344 4.75,-4.21875c1.92188,0.80078 3.52734,2.16016 4.65625,3.90625c-2.01172,0.96875 -3.40625,3.02734 -3.40625,5.40625c0,2.36328 1.38672,4.39844 3.375,5.375c-1.13281,1.72266 -2.74219,3.05078 -4.65625,3.84375c-0.65625,-2.14844 -2.44531,-3.75781 -4.71875,-4.125v11.8125c2.78906,-0.44922 4.85156,-2.75781 4.96875,-5.65625c2.69531,-0.98047 4.92188,-2.81641 6.375,-5.28125c0.21094,0.02344 0.4375,0.03125 0.65625,0.03125c3.30859,0 6,-2.69141 6,-6c0,-3.30859 -2.69141,-6 -6,-6c-0.19531,0 -0.40234,0.01172 -0.59375,0.03125c-1.45312,-2.51172 -3.70312,-4.38281 -6.4375,-5.375c-0.16016,-2.85547 -2.21094,-5.11719 -4.96875,-5.5625zM14.59375,15.40625c1,0 1.80078,0.08594 2.5,0.1875c0.69922,0.10156 1.39844,0.30078 2,0.5v3.90625c-0.30078,-0.19922 -0.60156,-0.39453 -1,-0.59375c-0.39844,-0.19922 -0.69531,-0.30469 -1.09375,-0.40625c-0.39844,-0.10156 -0.79297,-0.1875 -1.09375,-0.1875c-0.39844,-0.10156 -0.69531,-0.125 -1.09375,-0.125c-0.5,0 -0.91406,0.02344 -1.3125,0.125c-0.39844,0.10156 -0.69922,0.17578 -1,0.375c-0.30078,0.19922 -0.49219,0.42578 -0.59375,0.625c-0.10156,0.19922 -0.21875,0.48047 -0.21875,0.78125c0,0.30078 0.11719,0.61328 0.21875,0.8125c0.19922,0.19922 0.38672,0.48828 0.6875,0.6875c0.30078,0.19922 0.69531,0.39453 1.09375,0.59375c0.39844,0.19922 0.90625,0.42578 1.40625,0.625c0.69922,0.30078 1.39844,0.60156 2,1c0.60156,0.30078 1.10156,0.6875 1.5,1.1875c0.39844,0.39844 0.69922,0.89844 1,1.5c0.19922,0.60156 0.3125,1.20703 0.3125,1.90625c-0.10156,1.10156 -0.29297,1.89453 -0.59375,2.59375c-0.39844,0.69922 -0.92578,1.28906 -1.625,1.6875c-0.69922,0.39844 -1.38281,0.70703 -2.28125,0.90625c-0.89844,0.19922 -1.8125,0.3125 -2.8125,0.3125c-1,0 -2.00781,-0.11328 -2.90625,-0.3125c-0.89844,-0.10156 -1.67969,-0.38672 -2.28125,-0.6875v-4.09375c0.69922,0.60156 1.50781,1.07422 2.40625,1.375c0.89844,0.30078 1.69531,0.5 2.59375,0.5c0.5,0 1.00781,0.00781 1.40625,-0.09375c0.39844,-0.10156 0.69922,-0.20703 1,-0.40625c0.30078,-0.19922 0.49219,-0.39453 0.59375,-0.59375c0.10156,-0.19922 0.1875,-0.48828 0.1875,-0.6875c0,-0.39844 -0.08203,-0.69922 -0.28125,-1c-0.19922,-0.30078 -0.51172,-0.51172 -0.8125,-0.8125c-0.39844,-0.19922 -0.8125,-0.48828 -1.3125,-0.6875c-0.5,-0.19922 -0.99219,-0.41797 -1.59375,-0.71875c-1.39844,-0.60156 -2.48828,-1.28906 -3.1875,-2.1875c-0.69922,-0.89844 -1.09375,-1.89453 -1.09375,-3.09375c0,-1 0.19531,-1.80078 0.59375,-2.5c0.39844,-0.69922 0.89453,-1.21875 1.59375,-1.71875c0.69922,-0.39844 1.41406,-0.80078 2.3125,-1c0.89844,-0.19922 1.78125,-0.28125 2.78125,-0.28125z"></path></g></g></svg>