<svg id="ea1MZcKFsxJ1" xmlns="http://www.w3.org/2000/svg" xmlns:xlink="http://www.w3.org/1999/xlink" viewBox="0 0 300 300" shape-rendering="geometricPrecision" text-rendering="geometricPrecision"><rect width="19.832986" height="18.267224" rx="0" ry="0" transform="translate(96.503131 78.81002)" fill="#d2dbed" stroke="#000"/><rect width="19.832986" height="18.267224" rx="0" ry="0" transform="translate(96.503131 97.077244)" fill="#d2dbed" stroke="#000"/><rect width="19.832986" height="18.267224" rx="0" ry="0" transform="translate(96.503131 115.344468)" fill="#d2dbed" stroke="#000"/><rect width="19.832986" height="18.267224" rx="0" ry="0" transform="translate(96.503131 131.732776)" fill="#d2dbed" stroke="#000"/><rect width="19.832986" height="18.267224" rx="0" ry="0" transform="translate(116.336117 78.81002)" fill="#d2dbed" stroke="#000"/><rect width="19.832986" height="18.267224" rx="0" ry="0" transform="translate(116.336117 97.077244)" fill="#d2dbed" stroke="#000"/><rect width="19.832986" height="18.267224" rx="0" ry="0" transform="translate(116.336117 115.344468)" fill="#d2dbed" stroke="#000"/><rect width="19.832986" height="18.267224" rx="0" ry="0" transform="translate(116.336117 131.732776)" fill="#d2dbed" stroke="#000"/><rect width="19.832986" height="18.267224" rx="0" ry="0" transform="translate(136.169103 78.81002)" fill="#d2dbed" stroke="#000"/><rect width="19.832986" height="18.267224" rx="0" ry="0" transform="translate(136.169103 97.077244)" fill="#d2dbed" stroke="#000"/><rect width="19.832986" height="18.267224" rx="0" ry="0" transform="translate(136.169103 115.344468)" fill="#d2dbed" stroke="#000"/><rect width="19.832986" height="18.267224" rx="0" ry="0" transform="translate(136.169103 131.732776)" fill="#d2dbed" stroke="#000"/><rect width="19.832986" height="18.267224" rx="0" ry="0" transform="translate(156.002089 78.81002)" fill="#d2dbed" stroke="#000"/><rect width="19.832986" height="18.267224" rx="0" ry="0" transform="translate(156.002089 97.077244)" fill="#d2dbed" stroke="#000"/><rect width="19.832986" height="18.267224" rx="0" ry="0" transform="translate(156.002089 115.344468)" fill="#d2dbed" stroke="#000"/><rect width="19.832986" height="18.267224" rx="0" ry="0" transform="translate(156.002089 131.732776)" fill="#d2dbed" stroke="#000"/></svg>
