<svg id="eGF0sIfj7MZ1" xmlns="http://www.w3.org/2000/svg" xmlns:xlink="http://www.w3.org/1999/xlink" viewBox="0 0 300 300" shape-rendering="geometricPrecision" text-rendering="geometricPrecision"><ellipse rx="5.219207" ry="5.741127" transform="translate(161.221294 86.11691)" stroke="#000"/><ellipse rx="5.219207" ry="5.741127" transform="translate(119.467641 99.686847)" stroke="#000"/><ellipse rx="5.219207" ry="5.741127" transform="translate(119.467641 127.035492)" stroke="#000"/><ellipse rx="5.219207" ry="5.741127" transform="translate(119.467641 155.741127)" stroke="#000"/><ellipse rx="5.219207" ry="5.741127" transform="translate(161.221294 170.354906)" stroke="#000"/><ellipse rx="5.219207" ry="5.741127" transform="translate(161.221294 144.258873)" stroke="#000"/><ellipse rx="5.219207" ry="5.741127" transform="translate(161.221294 115.553238)" stroke="#000"/><ellipse rx="5.219207" ry="5.741127" transform="translate(200.887267 99.686847)" stroke="#000"/><ellipse rx="5.219207" ry="5.741127" transform="translate(200.887267 127.035492)" stroke="#000"/><ellipse rx="5.219207" ry="5.741127" transform="translate(200.887267 155.741127)" stroke="#000"/><line x1="-21.398748" y1="0" x2="21.398748" y2="0" transform="matrix(.929238 1.00744-.73506 0.678002 141.071207 121.295265)" fill="none" stroke="#000"/><line x1="-21.398748" y1="0" x2="21.398748" y2="0" transform="matrix(.929238 1.00744-.73506 0.678002 181.972346 107.674855)" fill="none" stroke="#000"/><line x1="-21.398748" y1="0" x2="21.398748" y2="0" transform="matrix(.929238 1.00744-.73506 0.678002 180.471629 134.183182)" fill="none" stroke="#000"/><line x1="-21.398748" y1="0" x2="21.398748" y2="0" transform="matrix(.929238 1.00744-.73506 0.678002 139.836041 148.796961)" fill="none" stroke="#000"/><line x1="-21.398748" y1="0" x2="21.398748" y2="0" transform="matrix(.984715-1.647277 0.858331 0.513096 140.698682 119.9876)" fill="none" stroke="#000"/><line x1="-21.398748" y1="0" x2="21.398748" y2="0" transform="matrix(.984715-1.647277 0.858331 0.513096 181.972346 132.776619)" fill="none" stroke="#000"/><line x1="-21.398748" y1="0" x2="21.398748" y2="0" transform="matrix(.937357-.877283 0.683323 0.730116 140.269299 135.158327)" fill="none" stroke="#000"/><line x1="-21.398748" y1="0" x2="21.398748" y2="0" transform="matrix(.941648 0.336599-.336599 0.941648 140.866389 106.889653)" fill="none" stroke="#000"/><line x1="-21.398748" y1="0" x2="21.398748" y2="0" transform="matrix(.941648 0.336599-.336599 0.941648 141.071207 134.725627)" fill="none" stroke="#000"/><line x1="-21.398748" y1="0" x2="21.398748" y2="0" transform="matrix(.941648 0.336599-.336599 0.941648 140.530975 162.943933)" fill="none" stroke="#000"/><line x1="-21.398748" y1="0" x2="21.398748" y2="0" transform="matrix(.941648 0.336599-.336599 0.941648 181.166563 150)" fill="none" stroke="#000"/><line x1="-21.398748" y1="0" x2="21.398748" y2="0" transform="matrix(.941648 0.336599-.336599 0.941648 181.371381 121.295265)" fill="none" stroke="#000"/><line x1="-21.398748" y1="0" x2="21.398748" y2="0" transform="matrix(.941648 0.336599-.336599 0.941648 180.73718 92.484041)" fill="none" stroke="#000"/><line x1="-21.398748" y1="0" x2="21.398748" y2="0" transform="matrix(.941648 0.336599-.336599 0.941648 180.73718 92.484041)" fill="none" stroke="#000"/><line x1="-21.398748" y1="0" x2="21.398748" y2="0" transform="matrix(.949485-.313812 0.313812 0.949485 140.698682 120.80764)" fill="none" stroke="#000"/><line x1="-21.398748" y1="0" x2="21.398748" y2="0" transform="matrix(.949485-.313812 0.313812 0.949485 140.269299 150.487625)" fill="none" stroke="#000"/><line x1="-21.398748" y1="0" x2="21.398748" y2="0" transform="matrix(.949485-.313812 0.313812 0.949485 180.569473 162.943933)" fill="none" stroke="#000"/><line x1="-21.398748" y1="0" x2="21.398748" y2="0" transform="matrix(.949485-.313812 0.313812 0.949485 181.539088 134.725627)" fill="none" stroke="#000"/><line x1="-21.398748" y1="0" x2="21.398748" y2="0" transform="matrix(.949485-.313812 0.313812 0.949485 180.998856 106.402028)" fill="none" stroke="#000"/><line x1="-21.398748" y1="0" x2="21.398748" y2="0" transform="matrix(.949485-.313812 0.313812 0.949485 180.998856 106.402028)" fill="none" stroke="#000"/><line x1="-21.398748" y1="0" x2="21.398748" y2="0" transform="matrix(.938517 1.644796 0.868554-.495595 140.866389 135.158327)" fill="none" stroke="#000"/><line x1="-21.398748" y1="0" x2="21.398748" y2="0" transform="matrix(.938517 1.644796 0.868554-.495595 179.803657 120.04069)" fill="none" stroke="#000"/><line x1="-21.398748" y1="0" x2="21.398748" y2="0" transform="matrix(.907915-1.006422-.74251-.669834 181.371381 122.236263)" fill="none" stroke="#000"/><line x1="-21.398748" y1="0" x2="21.398748" y2="0" transform="matrix(.907915-1.006422-.74251-.669834 180.92792 148.122933)" fill="none" stroke="#000"/><line x1="-21.398748" y1="0" x2="21.398748" y2="0" transform="matrix(.907915-1.006422-.74251-.669834 140.698682 105.98664)" fill="none" stroke="#000"/><line x1="-21.398748" y1="0" x2="21.398748" y2="0" transform="matrix(.944757-.327773 0.327773 0.944757 141.004686 91.858037)" fill="none" stroke="#000"/></svg>
